<svg xmlns="http://www.w3.org/2000/svg" viewBox="0 0 140 140"><defs><style>.cls-1{fill:#69bf12;}.cls-2{fill:#fff;}</style></defs><title>1до</title><g id="Слой_2" data-name="Слой 2"><g id="почему"><g id="_1до" data-name="1до"><rect class="cls-1" width="140" height="140" rx="70" ry="70"/><path class="cls-2" d="M74.09,78.49a22.73,22.73,0,0,1-22.51-20,3.09,3.09,0,0,1,.76-2.43A3.16,3.16,0,0,1,54.73,55H93.46a3.19,3.19,0,0,1,2.39,1.08,3.09,3.09,0,0,1,.76,2.43A22.74,22.74,0,0,1,74.09,78.49ZM54.73,56.61a1.59,1.59,0,0,0-1.19.54,1.46,1.46,0,0,0-.37,1.17,21.07,21.07,0,0,0,41.85,0,1.49,1.49,0,0,0-.37-1.17,1.59,1.59,0,0,0-1.19-.54Z"/><path class="cls-2" d="M77.06,73.31l-.27-1.58a16.4,16.4,0,0,0,11.63-8.55l1.42.74A18,18,0,0,1,77.06,73.31Z"/><rect class="cls-2" x="41.67" y="58.27" width="10.29" height="1.6"/><rect class="cls-2" x="87.32" y="73.65" width="1.6" height="11.32" transform="translate(-22.16 35.79) rotate(-20.45)"/><rect class="cls-2" x="43.33" y="86.2" width="27.74" height="1.6" transform="translate(-44.3 110.23) rotate(-69.56)"/><path class="cls-2" d="M92.42,100.8a6.71,6.71,0,1,1,6.71-6.71A6.72,6.72,0,0,1,92.42,100.8Zm0-11.82a5.11,5.11,0,1,0,5.11,5.11A5.11,5.11,0,0,0,92.42,89Z"/><path class="cls-2" d="M92.42,97.25a3.17,3.17,0,1,1,3.16-3.16A3.17,3.17,0,0,1,92.42,97.25Zm0-4.73a1.57,1.57,0,1,0,0,3.13,1.57,1.57,0,0,0,0-3.13Z"/><rect class="cls-2" x="54.53" y="93.41" width="28.29" height="1.6"/><path class="cls-2" d="M65.05,52.09,63.92,51c1.16-1.16.72-2.68-.16-5.05-.79-2.16-1.7-4.62.16-6.48l1.13,1.14c-1,1-.62,2.51.22,4.79S67,50.12,65.05,52.09Z"/><path class="cls-2" d="M74.51,52.09,73.38,51c1.16-1.16.72-2.68-.16-5.05-.79-2.16-1.7-4.62.16-6.48l1.13,1.14c-1.06,1-.62,2.51.21,4.79S76.48,50.12,74.51,52.09Z"/><path class="cls-2" d="M84.56,52.09,83.43,51c1.16-1.16.72-2.68-.16-5.05-.8-2.16-1.7-4.62.16-6.48l1.13,1.14c-1.06,1-.62,2.51.21,4.79S86.53,50.12,84.56,52.09Z"/></g></g></g></svg>