<svg xmlns="http://www.w3.org/2000/svg" viewBox="0 0 140 140"><defs><style>.cls-1{fill:#69bf12;}.cls-2{fill:#fff;}</style></defs><title>2до</title><g id="Слой_2" data-name="Слой 2"><g id="почему"><g id="_2до" data-name="2до"><rect class="cls-1" width="140" height="140" rx="70" ry="70"/><path class="cls-2" d="M86.13,100.8H78.94a2.81,2.81,0,0,1-2.69-2l-.73-2.55a3.2,3.2,0,0,0-3.43-2.3,44.21,44.21,0,0,1-4.61.31c-.67,0-1.31,0-1.92,0a3.23,3.23,0,0,0-3.14,2.16l-.87,2.56a2.8,2.8,0,0,1-2.65,1.89H53.45a2.82,2.82,0,0,1-2.8-2.62l-.54-8.5-5.55-4.61-6-.95a2.47,2.47,0,0,1-2.4-2.47v-10a2.48,2.48,0,0,1,2.38-2.47l4.13-.88a22.85,22.85,0,0,1,1.4-4A26.91,26.91,0,0,1,46.9,60.6a11.59,11.59,0,0,0-1.29-5.43,26.08,26.08,0,0,0-3-3.58l-1-1L43,50.26a16.71,16.71,0,0,1,9.47.7,33.13,33.13,0,0,1,5.08,3,27.09,27.09,0,0,1,7.63-2.12l.22,1.59a24.09,24.09,0,0,0-7.54,2.16l-.45.24-.41-.3a35.54,35.54,0,0,0-5.16-3.11,14.34,14.34,0,0,0-7.05-.86A20.31,20.31,0,0,1,47,54.37,13.36,13.36,0,0,1,48.49,61l0,.28-.18.2a27.89,27.89,0,0,0-2.8,3.65,24.26,24.26,0,0,0-1.38,4.07l-.12.49-5.35,1.12a.87.87,0,0,0-.87.87v10a.87.87,0,0,0,.87.87h.13l6.47,1,6.43,5.33.58,9.19a1.2,1.2,0,0,0,1.2,1.12H58.9A1.22,1.22,0,0,0,60,98.39l.87-2.56a4.77,4.77,0,0,1,4.72-3.24c.59,0,1.2,0,1.85,0a43.61,43.61,0,0,0,4.44-.3,4.81,4.81,0,0,1,5.14,3.45l.72,2.55a1.21,1.21,0,0,0,1.16.87h7.19a1.2,1.2,0,0,0,1.17-1.49L85,88.43l.5-.3c5.28-3.28,7.17-7.12,7.36-7.55,1-2.23,3.1-8.08,0-14.1-.35-.68-.75-1.37-1.18-2L93,63.57a23.09,23.09,0,0,1,1.26,2.18c3.4,6.65,1.15,13.06,0,15.5a20.42,20.42,0,0,1-7.49,7.92l2,8.16a2.79,2.79,0,0,1-2.72,3.47Z"/><path class="cls-2" d="M83.18,84.38,82.34,83a14.16,14.16,0,0,0,5.08-5c.66-1.43,2-5.17.12-8.85L89,68.48c2.2,4.31.67,8.61-.09,10.26A15.26,15.26,0,0,1,83.18,84.38Z"/><path class="cls-2" d="M95.42,71.45a9.93,9.93,0,0,0,2.09.31,8.08,8.08,0,0,0,2.14-.18,5.48,5.48,0,0,0,1.95-.89A5.17,5.17,0,0,0,103,69a5.5,5.5,0,0,1-1.16,2,6.12,6.12,0,0,1-2,1.35,9.32,9.32,0,0,1-2.33.62,11.16,11.16,0,0,1-2.46.06Z"/><path class="cls-2" d="M82.1,62.15A11.48,11.48,0,1,1,93.58,50.68,11.49,11.49,0,0,1,82.1,62.15Zm0-21.35A9.88,9.88,0,1,0,92,50.68,9.89,9.89,0,0,0,82.1,40.8Z"/><path class="cls-2" d="M82.1,62.15A11.48,11.48,0,1,1,93.58,50.68,11.49,11.49,0,0,1,82.1,62.15Zm0-21.35A9.88,9.88,0,1,0,92,50.68,9.89,9.89,0,0,0,82.1,40.8Z"/><path class="cls-2" d="M56.12,69.18a3.49,3.49,0,1,1,3.49-3.49A3.49,3.49,0,0,1,56.12,69.18Zm0-5.38A1.89,1.89,0,1,0,58,65.69,1.89,1.89,0,0,0,56.12,63.8Z"/><path class="cls-2" d="M85.26,47.47V49c0,1.9-.92,2.94-2.79,2.94h-.88v4.47H79.72V44.53h2.75C84.34,44.53,85.26,45.57,85.26,47.47Zm-3.67-1.24v4h.88c.6,0,.92-.27.92-1.12V47.35c0-.85-.32-1.12-.92-1.12Z"/></g></g></g></svg>