<svg xmlns="http://www.w3.org/2000/svg" viewBox="0 0 140 140"><defs><style>.cls-1{fill:#69bf12;}.cls-2{fill:#fff;}</style></defs><title>3до</title><g id="Слой_2" data-name="Слой 2"><g id="почему"><g id="_3до" data-name="3до"><rect class="cls-1" width="140" height="140" rx="70" ry="70"/><path class="cls-2" d="M93,105h-1.6c0-1.37-1.48-3.22-3-5.18-2-2.52-4.29-5.38-4.29-8.39a8.13,8.13,0,0,1,16.25,0c0,3.23-2.3,6-4.33,8.49C94.44,101.79,93,103.56,93,105Zm-.8-20.09a6.54,6.54,0,0,0-6.53,6.52c0,2.45,2.09,5.08,3.94,7.4a28.13,28.13,0,0,1,2.57,3.57,25,25,0,0,1,2.58-3.5c2-2.36,4-4.81,4-7.47A6.53,6.53,0,0,0,92.19,84.91Z"/><path class="cls-2" d="M92.19,96.33a4.71,4.71,0,1,1,4.71-4.71A4.72,4.72,0,0,1,92.19,96.33Zm0-7.82a3.11,3.11,0,1,0,3.11,3.11A3.12,3.12,0,0,0,92.19,88.51Z"/><path class="cls-2" d="M107,91.12h-1.6c0-.61-.79-1.48-1.56-2.32-1.16-1.28-2.48-2.73-2.48-4.54a4.85,4.85,0,1,1,9.69,0c0,1.94-1.33,3.35-2.51,4.6C107.75,89.69,107,90.48,107,91.12ZM106.2,81A3.25,3.25,0,0,0,103,84.26c0,1.19,1.05,2.35,2.06,3.46a17.75,17.75,0,0,1,1.18,1.38,15.74,15.74,0,0,1,1.18-1.34c1-1.08,2.07-2.2,2.07-3.5A3.26,3.26,0,0,0,106.2,81Z"/><path class="cls-2" d="M109.17,104.65H96.53v-1.6h12.64a1.14,1.14,0,0,0,1.15-1.14v-.67a1.15,1.15,0,0,0-1.15-1.15h-5.45a2.75,2.75,0,0,1,0-5.49h.94a1.15,1.15,0,0,0,1.15-1l0-.37,1.59.14,0,.37a2.73,2.73,0,0,1-2.74,2.51h-.94a1.15,1.15,0,0,0,0,2.29h5.45a2.75,2.75,0,0,1,2.75,2.75v.67A2.75,2.75,0,0,1,109.17,104.65Z"/><path class="cls-2" d="M68.11,90.86A19.62,19.62,0,1,1,87.73,71.24,19.64,19.64,0,0,1,68.11,90.86Zm0-37.64a18,18,0,1,0,18,18A18,18,0,0,0,68.11,53.22Z"/><path class="cls-2" d="M68.38,46.86a6.33,6.33,0,1,1,6.33-6.33A6.34,6.34,0,0,1,68.38,46.86Zm0-11.06a4.73,4.73,0,1,0,4.73,4.73A4.73,4.73,0,0,0,68.38,35.8Z"/><rect class="cls-2" x="67.31" y="52.43" width="1.6" height="3.87"/><rect class="cls-2" x="62.57" y="103.05" width="11.07" height="1.6"/><rect class="cls-2" x="67.58" y="42.19" width="1.6" height="3.88"/><polygon class="cls-2" points="73.91 72.05 68.04 72.05 67.31 71.29 67.31 61.55 68.91 61.55 68.91 70.45 73.91 70.45 73.91 72.05"/><rect class="cls-2" x="67.31" y="86.19" width="1.6" height="3.87"/><rect class="cls-2" x="83.05" y="70.44" width="3.87" height="1.6"/><rect class="cls-2" x="49.29" y="70.44" width="3.88" height="1.6"/><path class="cls-2" d="M68.07,97.22A26,26,0,1,1,92.68,79.67l-1.51-.52A24.53,24.53,0,0,0,78,48.93,24.4,24.4,0,0,0,58.2,93.54a24.54,24.54,0,0,0,21.58-.89l.77,1.4A26.1,26.1,0,0,1,68.07,97.22Z"/></g></g></g></svg>