<svg xmlns="http://www.w3.org/2000/svg" viewBox="0 0 140 140"><defs><style>.cls-1{fill:#69bf12;}.cls-2{fill:#fff;}</style></defs><title>4до</title><g id="Слой_2" data-name="Слой 2"><g id="почему"><g id="_4до" data-name="4до"><rect class="cls-1" width="140" height="140" rx="70" ry="70"/><path class="cls-2" d="M93.7,68.55c-.84-9.72-2.06-13.47-2.93-14.91l1.36-.83c1.42,2.33,2.46,7.44,3.16,15.61Z"/><path class="cls-2" d="M86.33,100.74H43.85a1.66,1.66,0,0,1-1.18-.49,1.59,1.59,0,0,1-.48-1.17c.09-21.54,3.54-45.6,3.74-47V43.75a4.55,4.55,0,1,1,9.09,0v7.49a2.67,2.67,0,1,1-5.34,0V47.49h1.6v3.75a1.07,1.07,0,0,0,2.14,0V43.75a2.95,2.95,0,1,0-5.89,0v8.54c0,.25-3.64,24.85-3.73,46.79l42.54.06Z"/><path class="cls-2" d="M57.52,99.94h-1.6c0-30-4.3-46.46-4.34-46.62l-.27-1H90.75a2.94,2.94,0,0,0,2.94-2.94V43.75a3,3,0,0,0-2.94-3H50.48V39.2H90.75a4.55,4.55,0,0,1,4.54,4.55v5.62a4.55,4.55,0,0,1-4.54,4.54H53.36C54.29,57.94,57.52,73.92,57.52,99.94Z"/><rect class="cls-2" x="48.77" y="67.17" width="1.6" height="32.54"/><path class="cls-2" d="M82.2,71.71H68.81a2.67,2.67,0,0,1-2.67-2.58c-.3-7.91-1.53-13.69-3.29-15.45L64,52.55c2.84,2.84,3.57,11.57,3.76,16.52a1.07,1.07,0,0,0,1.07,1H82.2a1.12,1.12,0,0,0,.79-.34,1.1,1.1,0,0,0,.28-.81c-.57-8.35-1.71-14.18-3-15.23l1-1.24c2.14,1.77,3.12,9.87,3.56,16.36a2.67,2.67,0,0,1-2.67,2.86Z"/><g id="tea_icon" data-name="tea icon"><path class="cls-2" d="M104.81,100.8H90.32l-1.2-11.89L88,78.74h19.18Zm-13-1.6h11.6l2-18.86H89.77l.94,8.4Z"/><path class="cls-2" d="M107.81,80.34H87.2v-5.1h2l1-3.5h14.68l1,3.5h2Zm-19-1.6h17.41v-1.9h-1.63l-1-3.5H91.39l-.52,1.9h10.6v1.6H88.8Z"/><rect class="cls-2" x="90.14" y="83.81" width="14.86" height="1.6"/><rect class="cls-2" x="90.6" y="94.64" width="13.95" height="1.6"/></g></g></g></g></svg>