<svg xmlns="http://www.w3.org/2000/svg" viewBox="0 0 140 140"><defs><style>.cls-1{fill:#69bf12;}.cls-2{fill:#fff;}</style></defs><title>5до</title><g id="Слой_2" data-name="Слой 2"><g id="почему"><g id="_5до" data-name="5до"><rect class="cls-1" width="140" height="140" rx="70" ry="70"/><path class="cls-2" d="M74.76,101.14,60.4,92.85V76.26L74.76,68l14.37,8.28V92.85ZM62,91.92l12.76,7.37,12.77-7.37V77.19L74.76,69.83,62,77.19Z"/><path class="cls-2" d="M60.87,77.66l-14.36-8.3V52.78l14.36-8.29,14.35,8.29V69.36ZM48.11,68.44l12.76,7.37,12.75-7.37V53.7L60.87,46.34,48.11,53.7Z"/><polygon class="cls-2" points="74.41 54.33 60.06 46.05 60.06 35 61.66 35 61.66 45.12 74.44 52.5 87.69 45.49 88.43 46.91 74.41 54.33"/><rect class="cls-2" x="87.7" y="73.82" width="7.75" height="1.6" transform="matrix(0.84, -0.54, 0.54, 0.84, -25.84, 61.7)"/><path class="cls-2" d="M98.32,74.58a4.29,4.29,0,1,1,4.29-4.29A4.29,4.29,0,0,1,98.32,74.58Zm0-7A2.69,2.69,0,1,0,101,70.29,2.68,2.68,0,0,0,98.32,67.61Z"/><rect class="cls-2" x="43.14" y="46.98" width="1.6" height="7.75" transform="translate(-22.63 60.11) rotate(-57.08)"/><path class="cls-2" d="M37.2,50.82a4.29,4.29,0,1,1,4.28-4.28A4.29,4.29,0,0,1,37.2,50.82Zm0-7a2.69,2.69,0,1,0,2.68,2.69A2.69,2.69,0,0,0,37.2,43.85Z"/><rect class="cls-2" x="47.88" y="95.04" width="14.22" height="1.6" transform="translate(-39.64 38.79) rotate(-29.07)"/><path class="cls-2" d="M45.29,105.8a4.29,4.29,0,1,1,4.29-4.29A4.3,4.3,0,0,1,45.29,105.8Zm0-7A2.69,2.69,0,1,0,48,101.51,2.69,2.69,0,0,0,45.29,98.83Z"/><rect class="cls-2" x="42.82" y="83.49" width="7.47" height="1.6"/><rect class="cls-2" x="72" y="83.49" width="4.47" height="1.6"/><rect class="cls-2" x="98.82" y="83.49" width="7.47" height="1.6"/><rect class="cls-2" x="73.97" y="100.21" width="1.6" height="4.79"/><path class="cls-2" d="M78,91.18H73a1.81,1.81,0,0,1-1.8-1.8v-10a1.81,1.81,0,0,1,1.8-1.8h5v1.6H73a.2.2,0,0,0-.2.2v10a.2.2,0,0,0,.2.2h5Z"/><rect class="cls-2" x="58" y="60.49" width="4.47" height="1.6"/><path class="cls-2" d="M64,68.18H59a1.81,1.81,0,0,1-1.8-1.8v-10a1.81,1.81,0,0,1,1.8-1.8h5v1.6H59a.2.2,0,0,0-.2.2v10a.2.2,0,0,0,.2.2h5Z"/></g></g></g></svg>