<svg xmlns="http://www.w3.org/2000/svg" viewBox="0 0 140 140"><defs><style>.cls-1{fill:#69bf12;}.cls-2{fill:#fff;}</style></defs><title>6до</title><g id="Слой_2" data-name="Слой 2"><g id="почему"><g id="_6до" data-name="6до"><rect class="cls-1" width="140" height="140" rx="70" ry="70"/><path class="cls-2" d="M97.46,68H42.54a2.8,2.8,0,0,1-2.8-2.8v-9.6a2.8,2.8,0,0,1,2.8-2.8H97.46a2.8,2.8,0,0,1,2.8,2.8v9.6A2.8,2.8,0,0,1,97.46,68ZM42.54,54.36a1.2,1.2,0,0,0-1.2,1.2v9.6a1.2,1.2,0,0,0,1.2,1.2H97.46a1.2,1.2,0,0,0,1.2-1.2v-9.6a1.2,1.2,0,0,0-1.2-1.2Z"/><path class="cls-2" d="M87.11,100.8H52.89a7.81,7.81,0,0,1-7.8-7.8V72.84h1.6V93a6.21,6.21,0,0,0,6.2,6.2H87.11a6.21,6.21,0,0,0,6.2-6.2V72.84h1.6V93A7.81,7.81,0,0,1,87.11,100.8Z"/><path class="cls-2" d="M63,94.8H53.89a2.81,2.81,0,0,1-2.8-2.8V82.38h1.6V92a1.2,1.2,0,0,0,1.2,1.2H63Z"/><path class="cls-2" d="M70.8,100H69.2V54.36H63.39a7.24,7.24,0,0,1-7.23-7.23v-.7a7.24,7.24,0,0,1,7.23-7.23h2.86v1.6H63.39a5.64,5.64,0,0,0-5.63,5.63v.7a5.64,5.64,0,0,0,5.63,5.63H69.2V46.69a7.5,7.5,0,0,1,15,0v.18a7.5,7.5,0,0,1-7.48,7.49H70.8Zm0-47.24h5.91a5.89,5.89,0,0,0,5.88-5.89v-.18a5.9,5.9,0,0,0-11.79,0Z"/></g></g></g></svg>