<svg xmlns="http://www.w3.org/2000/svg" viewBox="0 0 140 161.49"><defs><style>.cls-1{fill:#f7f7f7;}.cls-2{fill:#69bf12;}.cls-3{fill:#fffcf7;}.cls-4{fill:#62b311;}</style></defs><title>3д</title><g id="Слой_2" data-name="Слой 2"><g id="_1_блок" data-name="1 блок"><g id="_3д" data-name="3д"><rect class="cls-1" width="140" height="140" rx="70" ry="70"/><rect class="cls-2" x="20.96" y="120.07" width="98.08" height="40" rx="8" ry="8" transform="translate(-4.85 2.53) rotate(-2)"/><path class="cls-3" d="M52,147.19a4.07,4.07,0,0,1-1.67-.23,2.48,2.48,0,0,1-1.13-.81,3.9,3.9,0,0,1-.64-1.29,7.83,7.83,0,0,1-.25-1.75l-.17-4.9a4.8,4.8,0,0,1,.72-3.09A3.24,3.24,0,0,1,51.56,134a3.27,3.27,0,0,1,2.75,1,4.78,4.78,0,0,1,.93,3l.18,4.92a5.06,5.06,0,0,1-.73,3.13A3.17,3.17,0,0,1,52,147.19Zm-.94-1.54a2.15,2.15,0,0,0,.89.13,2,2,0,0,0,.87-.2,1.1,1.1,0,0,0,.51-.51,2.61,2.61,0,0,0,.22-.75,7.54,7.54,0,0,0,0-1l-.2-5.67a5,5,0,0,0-.1-1A2.09,2.09,0,0,0,53,136a1.1,1.1,0,0,0-.54-.46,2.66,2.66,0,0,0-1.76.06,1.08,1.08,0,0,0-.51.5,2.14,2.14,0,0,0-.22.73,4.87,4.87,0,0,0,0,1l.19,5.67a6.21,6.21,0,0,0,.11,1,2.23,2.23,0,0,0,.27.72A1.17,1.17,0,0,0,51.09,145.65Z"/><path class="cls-3" d="M57.6,146.86l-.33-9.25,5.37-.18.32,9.24-1.71.06L61,138.79l-1.94.07.28,7.94Z"/><path class="cls-3" d="M64.5,146.69l0-1.29a1.73,1.73,0,0,0,.42-.05.75.75,0,0,0,.33-.17,1.48,1.48,0,0,0,.25-.25,1.63,1.63,0,0,0,.17-.41c.05-.18.08-.36.12-.53s0-.41.07-.72,0-.59,0-.86,0-.63,0-1.07l.07-4,4.83-.17.32,9.25-1.71.05-.27-7.94-1.64.06,0,2.72c0,.75,0,1.37-.06,1.88a10.93,10.93,0,0,1-.18,1.39,4.19,4.19,0,0,1-.31,1,2.05,2.05,0,0,1-.5.63,1.9,1.9,0,0,1-.72.37,5.07,5.07,0,0,1-1,.13Z"/><path class="cls-3" d="M74.91,146.39a1.68,1.68,0,0,1-1.35-.61A2.29,2.29,0,0,1,73,144.3a3.36,3.36,0,0,1,.18-1.2,3.93,3.93,0,0,1,.42-.87,2.88,2.88,0,0,1,.82-.72,8.19,8.19,0,0,1,.91-.53c.21-.11.59-.28,1.13-.53l.07,0,0-.66a3.17,3.17,0,0,0-.22-1.27.77.77,0,0,0-.76-.36c-.65,0-1,.47-.93,1.35l0,.46h-1.7c0-.1,0-.21,0-.35a2.83,2.83,0,0,1,.7-2,2.86,2.86,0,0,1,2-.7,2.35,2.35,0,0,1,2,.66,3.37,3.37,0,0,1,.67,2.18l.15,4.22a18.2,18.2,0,0,0,.23,2.22l-1.56.05c-.12-.51-.22-1-.27-1.36a2.54,2.54,0,0,1-.63,1.09A1.74,1.74,0,0,1,74.91,146.39Zm.62-1.51a1,1,0,0,0,.64-.28,2.08,2.08,0,0,0,.45-.53l-.09-2.61a10,10,0,0,0-1.16.79,1.82,1.82,0,0,0-.7,1.47,1.6,1.6,0,0,0,.25.87A.68.68,0,0,0,75.53,144.88Z"/><path class="cls-3" d="M81.49,146l-.28-8-1.73.06,0-1.28,5.19-.18,0,1.28-1.75.06.28,8Z"/><path class="cls-3" d="M88,145.93a1.65,1.65,0,0,1-1.34-.61,2.29,2.29,0,0,1-.59-1.48,3.07,3.07,0,0,1,.17-1.19,3.43,3.43,0,0,1,.43-.88,2.68,2.68,0,0,1,.81-.71c.4-.26.7-.43.91-.54l1.13-.53.07,0,0-.66a3.17,3.17,0,0,0-.23-1.27.73.73,0,0,0-.76-.35c-.64,0-1,.46-.92,1.34l0,.46H86v-.35a2.46,2.46,0,0,1,2.68-2.74,2.36,2.36,0,0,1,2,.66,3.51,3.51,0,0,1,.67,2.18l.15,4.22a16.42,16.42,0,0,0,.23,2.22l-1.56.05a13.81,13.81,0,0,1-.28-1.36,2.36,2.36,0,0,1-.63,1.09A1.72,1.72,0,0,1,88,145.93Zm.63-1.51a1,1,0,0,0,.64-.28,2.28,2.28,0,0,0,.45-.52L89.67,141a8.41,8.41,0,0,0-1.16.79,1.79,1.79,0,0,0-.7,1.47,1.5,1.5,0,0,0,.24.87A.69.69,0,0,0,88.67,144.42Z"/><path class="cls-4" d="M104.29,72.66l-31-1.08h-.14a3.8,3.8,0,0,0-3.79,3.67l-.05,1.39h0l-.07,2-.49,14a3.83,3.83,0,0,0,1,2.73,3.75,3.75,0,0,0,2.65,1.2l31,1.08h.13a3.81,3.81,0,0,0,3.8-3.67L108,76.59A3.81,3.81,0,0,0,104.29,72.66ZM71,75.3a2.22,2.22,0,0,1,2.27-2.12l31,1.08a2.2,2.2,0,0,1,2.12,2.28l0,1.39L70.92,76.7Zm35.14,8.47-35.4-1.23.15-4.2v0l35.39,1.24Zm-1.06,11.67a2.21,2.21,0,0,1-1.57.58l-31-1.08a2.2,2.2,0,0,1-2.12-2.27l.3-8.53,35.39,1.23-.3,8.53A2.21,2.21,0,0,1,105.05,95.44Z"/><path class="cls-4" d="M41.43,85.25V56a1.16,1.16,0,0,1,1.15-1.15h53.9A1.15,1.15,0,0,1,97.62,56V69h1.6V56a2.75,2.75,0,0,0-2.74-2.75H95.33V52.14a2.75,2.75,0,0,0-2.75-2.75H91.43V48.24a2.75,2.75,0,0,0-2.75-2.75H34.79A2.75,2.75,0,0,0,32,48.24V77.46a2.75,2.75,0,0,0,2.75,2.75h1.15v1.15a2.74,2.74,0,0,0,2.74,2.74h1.15v1.15A2.75,2.75,0,0,0,42.58,88H65.31V86.4H42.58A1.16,1.16,0,0,1,41.43,85.25ZM35.94,52.14V78.61H34.79a1.16,1.16,0,0,1-1.15-1.15V48.24a1.16,1.16,0,0,1,1.15-1.15H88.68a1.15,1.15,0,0,1,1.15,1.15v1.15H38.68A2.75,2.75,0,0,0,35.94,52.14ZM39.83,56V82.5H38.68a1.14,1.14,0,0,1-1.14-1.14V52.14A1.14,1.14,0,0,1,38.68,51h53.9a1.15,1.15,0,0,1,1.15,1.15v1.14H42.58A2.75,2.75,0,0,0,39.83,56Z"/><path class="cls-4" d="M61.89,70.64a7.63,7.63,0,0,1,15.26-.29l1.6-.06A9.23,9.23,0,1,0,67,79.53L67.47,78A7.64,7.64,0,0,1,61.89,70.64Z"/><path class="cls-4" d="M88.53,57.33A6.65,6.65,0,0,0,95.18,64v-1.6a5.05,5.05,0,0,1-5.05-5Z"/><path class="cls-4" d="M48.92,57.33a5,5,0,0,1-5,5V64a6.65,6.65,0,0,0,6.64-6.64Z"/><path class="cls-4" d="M43.88,77.31v1.6a5,5,0,0,1,5,5h1.6A6.65,6.65,0,0,0,43.88,77.31Z"/></g></g></g></svg>