<svg xmlns="http://www.w3.org/2000/svg" viewBox="0 0 140 160.71"><defs><style>.cls-1{fill:#f7f7f7;}.cls-2{fill:#62b311;}.cls-3{fill:#69bf12;}.cls-4{fill:#fffcf7;}</style></defs><title>5д</title><g id="Слой_2" data-name="Слой 2"><g id="_1_блок" data-name="1 блок"><g id="_5д" data-name="5д"><rect class="cls-1" width="140" height="140" rx="70" ry="70"/><path class="cls-2" d="M102.47,87.35A4.68,4.68,0,1,0,97.79,92,4.68,4.68,0,0,0,102.47,87.35Zm-7.76,0a3.08,3.08,0,1,1,3.08,3.08A3.09,3.09,0,0,1,94.71,87.35Z"/><path class="cls-2" d="M106.15,82.35l-1.38.82a8.25,8.25,0,0,1,1.08,3,8.14,8.14,0,1,1-16.12,2.26l-1.58.23a9.74,9.74,0,0,0,9.63,8.38,8.89,8.89,0,0,0,1.36-.1,9.75,9.75,0,0,0,7-14.64Z"/><path class="cls-2" d="M53,92a4.68,4.68,0,0,0,4.64-4.71H56A3.08,3.08,0,0,1,53,90.43a3,3,0,0,1-2.18-.89,3.07,3.07,0,0,1-.92-2.16h-1.6A4.69,4.69,0,0,0,53,92Z"/><path class="cls-2" d="M52.27,95.15h-.06a8,8,0,0,1-8.06-7.79h-1.6a9.57,9.57,0,0,0,9.66,9.38h.08a9.56,9.56,0,0,0,9.59-9.52h-1.6A8,8,0,0,1,52.27,95.15Z"/><path class="cls-2" d="M108.34,77.75c-.74-2.59-3.28-6.9-12-7.12a3.9,3.9,0,0,0-3.52-3.44L86.53,54.1l4.15,1.55.93-9.36-.7-.15C90.3,46,85.28,45,83.13,47.29a3.72,3.72,0,0,0-2.64-.51A3.54,3.54,0,0,0,78.1,49l1.46.65a2.07,2.07,0,0,1,1.27-1.32,2.68,2.68,0,0,1,2,.66l.76.64.46-.87c.84-1.56,4.09-1.44,5.85-1.19l-.58,5.84-2.21-.82a1.55,1.55,0,0,0-1.7.42,1.57,1.57,0,0,0-.27,1.74l6.64,14h.51a2.52,2.52,0,0,1,2.51,2.65v.8h.8c8.3,0,10.6,3.74,11.23,6a.32.32,0,0,1,0,.28.35.35,0,0,1-.27.14h-4.65a2.38,2.38,0,0,1-.71-.13A9.93,9.93,0,0,0,96.46,78a9.31,9.31,0,0,0-7.63,5.67A2,2,0,0,1,87,84.85H84.87c.28-2.11,1.42-7.65,5.7-10.52L89.68,73c-6,4-6.48,12.26-6.5,12.61l0,.84H87a3.56,3.56,0,0,0,3.33-2.19,7.67,7.67,0,0,1,6.37-4.69,8.63,8.63,0,0,1,3.92.42,3.68,3.68,0,0,0,1.23.22h4.65a1.94,1.94,0,0,0,1.86-2.46Z"/><rect class="cls-2" x="72.77" y="52.51" width="9.55" height="1.6" transform="matrix(0.96, -0.28, 0.28, 0.96, -11.77, 23.68)"/><path class="cls-2" d="M81,55.69l-1.52.5L83,67,74.82,84.28H39.49a2,2,0,0,1-1.66-.85,2,2,0,0,1-.27-1.83c1.07-3.18,3.5-8.88,7.66-11.25l.77-.43-.51-.73a4.3,4.3,0,0,1-.66-3.14,3.8,3.8,0,0,1,2.31-2.26h.44a2,2,0,0,0,.35,0H70.36a2.92,2.92,0,0,1,3,3,2.64,2.64,0,0,1-.79,1.92,3.83,3.83,0,0,1-2.71.9H63.55v1.6h5.62L64.94,81.66l1.48.6,4.51-11.21a5,5,0,0,0,2.76-1.27A4.25,4.25,0,0,0,75,66.71a4.49,4.49,0,0,0-4.61-4.56H49.77a2.15,2.15,0,0,0,.11-.68V47.81a2.32,2.32,0,0,0-2.31-2.32H43v4.7l-2.24-1.35L38.5,50.19v-4.7H33.9a2.31,2.31,0,0,0-2.31,2.32V61.47a2.31,2.31,0,0,0,2.31,2.32h1.48l6.82,6.82c-3.06,2.81-5,7.09-6.16,10.48a3.63,3.63,0,0,0,3.45,4.79H75.83l8.88-18.77ZM33.9,62.19a.71.71,0,0,1-.71-.72V47.81a.71.71,0,0,1,.71-.72h3V53l3.83-2.32L44.57,53V47.09h3a.71.71,0,0,1,.71.72V61.47a.71.71,0,0,1-.54.68h-.88l-.08,0Zm3.75,1.6h6.69a4.55,4.55,0,0,0-1.06,1.82,5.47,5.47,0,0,0,.47,3.77l-.3.22Z"/><path class="cls-2" d="M50.43,70.28C58.22,70.28,61,72.56,61,79h1.6c0-7.32-3.52-10.3-12.15-10.3Z"/><rect class="cls-3" x="43.33" y="120.07" width="53.33" height="40" rx="8" ry="8" transform="translate(-4.85 2.53) rotate(-2)"/><path class="cls-4" d="M58.12,146.84l-.45-13,5-.17,0,1.3-3.19.11.15,4.3,2.48-.09,0,1.29-2.47.09.21,6.06Z"/><path class="cls-4" d="M64.44,146.62l-.32-9.25,1.71-.06,0,1.32a3.36,3.36,0,0,1,.95-1.15,2,2,0,0,1,1.05-.36h.28l.07,1.89a2.64,2.64,0,0,0-.94-.15,1.5,1.5,0,0,0-.75.22,2,2,0,0,0-.61.71l.23,6.76Z"/><path class="cls-4" d="M72.5,146.47a3.45,3.45,0,0,1-1.36-.18,1.8,1.8,0,0,1-.87-.69,3.48,3.48,0,0,1-.46-1.13,9.34,9.34,0,0,1-.17-1.6l-.08-2.11a9,9,0,0,1,.07-1.63A3.47,3.47,0,0,1,70,138a1.76,1.76,0,0,1,.81-.74,3.5,3.5,0,0,1,1.32-.27A4,4,0,0,1,73,137a2.21,2.21,0,0,1,.67.24,1.47,1.47,0,0,1,.48.42,2.59,2.59,0,0,1,.34.58,3.64,3.64,0,0,1,.22.74,8.66,8.66,0,0,1,.12.87q0,.44.06,1l0,.75-3.64.13,0,1.24s0,0,0,.1c0,.26,0,.45,0,.57s0,.29.05.49a1.69,1.69,0,0,0,.1.45,2.1,2.1,0,0,0,.19.3.53.53,0,0,0,.29.22,1.13,1.13,0,0,0,.43,0,.76.76,0,0,0,.74-.4,2.57,2.57,0,0,0,.16-1.15l0-.56L75,143v.36C75.07,145.38,74.24,146.41,72.5,146.47Zm-1.22-5.62,2-.07,0-.83c0-.25,0-.45,0-.62a2.73,2.73,0,0,0-.1-.48,1,1,0,0,0-.17-.36.72.72,0,0,0-.28-.2,1,1,0,0,0-.43-.06.77.77,0,0,0-.79.46,4.61,4.61,0,0,0-.14,1.66Z"/><path class="cls-4" d="M79.63,146.22a3.45,3.45,0,0,1-1.36-.18,1.8,1.8,0,0,1-.87-.69,3.48,3.48,0,0,1-.46-1.13,9.34,9.34,0,0,1-.17-1.6l-.08-2.11a8.09,8.09,0,0,1,.08-1.63,3.13,3.13,0,0,1,.39-1.15A1.76,1.76,0,0,1,78,137a3.5,3.5,0,0,1,1.32-.27,4,4,0,0,1,.88.06,2.33,2.33,0,0,1,.66.24,1.41,1.41,0,0,1,.49.42,2.59,2.59,0,0,1,.34.58,3.64,3.64,0,0,1,.22.74,8.66,8.66,0,0,1,.12.87c0,.29,0,.64.06,1l0,.75-3.64.12,0,1.24s0,0,0,.1c0,.26,0,.45,0,.57s0,.29,0,.49a1.69,1.69,0,0,0,.1.45,2.16,2.16,0,0,0,.19.31.56.56,0,0,0,.29.21,1.35,1.35,0,0,0,.43.06.78.78,0,0,0,.74-.41,2.57,2.57,0,0,0,.16-1.15l0-.56,1.67-.06v.36C82.2,145.13,81.37,146.16,79.63,146.22Zm-1.22-5.62,2-.07,0-.83c0-.25,0-.45,0-.62a2.73,2.73,0,0,0-.1-.48,1,1,0,0,0-.17-.36.72.72,0,0,0-.28-.2,1,1,0,0,0-.43-.06.79.79,0,0,0-.79.46,4.61,4.61,0,0,0-.14,1.66Z"/></g></g></g></svg>