<?xml version="1.0" encoding="utf-8"?>
<!-- Generator: Adobe Illustrator 24.1.2, SVG Export Plug-In . SVG Version: 6.00 Build 0)  -->
<svg version="1.1" id="Слой_1" xmlns="http://www.w3.org/2000/svg" xmlns:xlink="http://www.w3.org/1999/xlink" x="0px" y="0px"
	 viewBox="0 0 140 161.5" style="enable-background:new 0 0 140 161.5;" xml:space="preserve">
<style type="text/css">
	.st0{fill:#F7F7F7;}
	.st1{fill:#69BF12;}
	.st2{fill:#62B311;}
	.st3{fill:none;}
	.st4{fill:#FFFFFF;}
</style>
<path class="st0" d="M70,0L70,0c38.7,0,70,31.3,70,70l0,0c0,38.7-31.3,70-70,70l0,0c-38.7,0-70-31.3-70-70l0,0C0,31.3,31.3,0,70,0z"
	/>
<path class="st1" d="M24.7,121.5l91.4-2.9c4.9-0.2,9,3.3,9.2,7.7l0.9,24c0.2,4.4-3.7,8.1-8.6,8.3l-91.4,2.9c-4.9,0.2-9-3.3-9.2-7.7
	l-0.9-24C15.9,125.4,19.8,121.7,24.7,121.5z"/>
<path class="st2" d="M73.2,73.4h6.3v-1.6h-6.3c-0.3-1.2-1.2-2.1-2.4-2.4V57.7h-1.6v11.6c-1.8,0.4-2.9,2.2-2.5,4s2.2,2.9,4,2.5
	C71.9,75.5,72.9,74.6,73.2,73.4L73.2,73.4z M68.2,72.6c0-1,0.8-1.7,1.7-1.7s1.7,0.8,1.7,1.7c0,0.9-0.8,1.7-1.7,1.7
	C69,74.3,68.3,73.5,68.2,72.6L68.2,72.6L68.2,72.6z"/>
<path class="st2" d="M65.1,52.4l-0.4-1.5c-0.7,0.2-1.3,0.4-2,0.6l0.5,1.5C63.9,52.8,64.5,52.6,65.1,52.4z"/>
<path class="st2" d="M49.7,76.8l-1.6,0.3c0.3,1.4,0.7,2.7,1.2,4l1.5-0.6C50.3,79.3,49.9,78,49.7,76.8z"/>
<path class="st2" d="M51.3,63.6l-1.4-0.7c-0.6,1.2-1.1,2.5-1.4,3.9l1.5,0.4C50.3,65.9,50.7,64.7,51.3,63.6z"/>
<path class="st2" d="M50.7,83.8c0.7,1.2,1.5,2.3,2.4,3.4l1.2-1c-0.8-1-1.6-2.1-2.3-3.2L50.7,83.8z"/>
<path class="st2" d="M49.3,72.6c0-0.9,0.1-1.7,0.2-2.6l-1.6-0.2c-0.1,0.9-0.2,1.8-0.2,2.7c0,0.5,0,1,0,1.4l1.6-0.1
	C49.3,73.4,49.3,73,49.3,72.6z"/>
<path class="st2" d="M81.5,89.8l0.9,1.3c1.2-0.8,2.2-1.6,3.2-2.6l-1.1-1.2C83.5,88.3,82.5,89.1,81.5,89.8z"/>
<path class="st2" d="M75.3,92.6l0.4,1.6c1.3-0.4,2.6-0.8,3.9-1.4L79,91.3C77.8,91.8,76.6,92.3,75.3,92.6z"/>
<path class="st2" d="M88.5,82c-0.6,1.1-1.3,2.2-2.1,3.3l1.3,1c0.8-1.1,1.6-2.3,2.2-3.5L88.5,82z"/>
<path class="st2" d="M70,93.3c-0.4,0-0.9,0-1.3,0l-0.1,1.6c0.5,0,0.9,0,1.4,0c0.9,0,1.9-0.1,2.8-0.2l-0.2-1.6
	C71.7,93.3,70.8,93.3,70,93.3z"/>
<path class="st2" d="M56.4,54.9l1,1.3c1-0.8,2.1-1.5,3.3-2.1L60,52.7C58.7,53.3,57.5,54,56.4,54.9z"/>
<path class="st2" d="M55.3,89.4c1,0.9,2.2,1.7,3.4,2.4l0.8-1.4c-1.1-0.7-2.2-1.4-3.1-2.3L55.3,89.4z"/>
<path class="st2" d="M51.4,60.2l1.3,0.9c0.7-1.1,1.5-2.1,2.4-3L54,57C53,58,52.2,59,51.4,60.2z"/>
<path class="st2" d="M61.5,93.2c1.3,0.5,2.6,0.9,4,1.2l0.3-1.6c-1.3-0.3-2.5-0.6-3.7-1.1L61.5,93.2z"/>
<path class="st2" d="M89.6,79.3l1.5,0.5c0.2-0.6,0.4-1.3,0.6-2l-1.6-0.4C90,78.1,89.8,78.7,89.6,79.3z"/>
<path class="st2" d="M90.8,72.6h1.6c0-12.3-10-22.3-22.3-22.3v1.6C81.5,51.8,90.7,61.1,90.8,72.6z"/>
<path class="st2" d="M99.5,72.6c0-8.4-3.6-16.5-9.9-22.1l1.5-2.1l4.1,2.8l0.4-0.7c2.6-3.8,1.7-9.1-2.2-11.7l-1-0.7
	c-3.8-2.6-9.1-1.7-11.7,2.2L80.3,41l4.7,3.2l-1.4,2.1c-8.6-4.4-18.8-4.4-27.3,0.1l-1.5-2.2l4.7-3.2L59,40.3
	c-2.6-3.8-7.9-4.8-11.7-2.2l-1,0.7c-3.8,2.6-4.8,7.9-2.2,11.7l0.5,0.7l4.1-2.8l1.6,2.3C38.1,61.6,37.2,80.2,48,92.3
	c0.8,0.9,1.7,1.8,2.6,2.6l-5,5l1.1,1.2l5.1-5.1c10.6,8.3,25.6,8.3,36.2,0l5,5.3l1.2-1.2l-5-5.2C95.8,89.2,99.5,81.1,99.5,72.6z
	 M91.5,39.5l1,0.7c2.9,2,3.8,5.8,2.2,8.9l-12.2-8.4C84.8,38,88.7,37.5,91.5,39.5L91.5,39.5z M89.7,47.5l-1.3,1.9L85,47l1.3-1.9
	L89.7,47.5z M47.2,40.1l1-0.7c2.9-2,6.7-1.5,9,1.1L45,49C43.4,45.9,44.3,42.1,47.2,40.1z M53.4,45.1l1.3,1.9l-3.4,2.3L50,47.5
	L53.4,45.1z M42.1,72.6c0-15.4,12.5-27.9,27.9-27.9s27.9,12.5,27.9,27.9S85.4,100.5,70,100.5S42.1,88,42.1,72.6z"/>
<polygon class="st3" points="36,138 32,138 32,138 "/>
<g>
	<path class="st4" d="M29.4,147.2l-0.4-13l3.2-0.1c0.8,0,1.4,0.1,1.9,0.4c0.5,0.3,0.8,0.7,1.1,1.2c0.2,0.5,0.4,1.2,0.4,1.9
		c0,0.7-0.1,1.3-0.3,1.8c-0.2,0.5-0.6,0.9-1,1.2s-1,0.4-1.7,0.5l-1.4,0l0.2,6L29.4,147.2z M31,139.8l0.8,0c0.5,0,0.9-0.1,1.2-0.2
		s0.5-0.3,0.6-0.6c0.1-0.3,0.2-0.7,0.2-1.2c0-0.6-0.1-1.1-0.2-1.4c-0.1-0.3-0.3-0.6-0.6-0.7c-0.3-0.1-0.7-0.2-1.3-0.2l-0.8,0
		L31,139.8z"/>
	<path class="st4" d="M39.5,147c-0.7,0-1.3-0.1-1.7-0.4s-0.7-0.7-0.9-1.2c-0.2-0.5-0.3-1.2-0.3-2l-0.1-2.1c0-0.8,0-1.5,0.2-2.1
		c0.1-0.5,0.4-1,0.8-1.3c0.4-0.3,0.9-0.4,1.6-0.5c0.8,0,1.4,0.1,1.7,0.4c0.4,0.3,0.6,0.8,0.8,1.4c0.1,0.6,0.2,1.3,0.2,2.2l0,0.8
		l-3.6,0.1l0.1,1.9c0,0.4,0.1,0.7,0.1,0.9c0.1,0.2,0.2,0.4,0.4,0.5c0.2,0.1,0.4,0.2,0.6,0.1c0.3,0,0.4-0.1,0.6-0.2
		c0.1-0.1,0.2-0.3,0.3-0.5c0-0.2,0.1-0.5,0-0.8l0-0.6l1.7-0.1l0,0.4c0,0.9-0.1,1.7-0.5,2.2C41.1,146.7,40.4,147,39.5,147z
		 M38.3,141.4l2-0.1l0-0.8c0-0.4,0-0.7-0.1-1c-0.1-0.3-0.1-0.5-0.3-0.6c-0.1-0.1-0.4-0.2-0.6-0.2c-0.3,0-0.5,0.1-0.6,0.2
		c-0.1,0.1-0.2,0.4-0.3,0.7c0,0.3-0.1,0.7,0,1.3L38.3,141.4z"/>
	<path class="st4" d="M42.9,146.8L45,142l-2.3-4.5l1.6-0.1l2.1,4.4l0.1,0l-0.1-4.4l1.4,0l0.1,4.4l0.1,0l1.8-4.5l1.6-0.1l-2,4.6
		l2.5,4.6l-1.6,0l-2.3-4.5l-0.1,0l0.1,4.5l-1.4,0l-0.1-4.5l-0.1,0l-2,4.6L42.9,146.8z"/>
	<path class="st4" d="M52.9,146.4l-0.3-9.2l1.4,0l0.2,6.2l2.6-6.3l1.3,0l0.3,9.2l-1.4,0l-0.2-6.3l-2.6,6.4L52.9,146.4z"/>
	<path class="st4" d="M60.2,146.2L60,137l1.3,0l2.2,5.6l1.9-5.7l1.3,0L67,146l-1.4,0l-0.2-5.5l-1.6,4.7l-0.5,0l-1.9-4.5l0.2,5.5
		L60.2,146.2z"/>
	<path class="st4" d="M72.4,148.9l-0.4-12.3l1.7-0.1l0,0.7c0.2-0.2,0.4-0.5,0.7-0.6c0.3-0.2,0.6-0.3,1-0.3c0.5,0,0.9,0.1,1.2,0.3
		c0.3,0.2,0.5,0.5,0.7,0.9c0.2,0.4,0.3,0.8,0.3,1.1c0.1,0.4,0.1,0.7,0.1,1l0.1,2.2c0,0.6,0,1.3-0.1,1.9c-0.1,0.6-0.3,1.1-0.7,1.4
		s-0.8,0.6-1.4,0.6c-0.3,0-0.6-0.1-0.9-0.2s-0.5-0.3-0.7-0.5l0.1,3.7L72.4,148.9z M75.3,144.5c0.3,0,0.5-0.1,0.6-0.3
		c0.1-0.2,0.2-0.5,0.2-0.9c0-0.4,0-0.8,0-1.2l-0.1-2.2c0-0.4,0-0.7-0.1-1.1c-0.1-0.3-0.2-0.6-0.3-0.8c-0.1-0.2-0.4-0.3-0.7-0.3
		c-0.2,0-0.4,0.1-0.6,0.2c-0.2,0.1-0.4,0.2-0.5,0.4l0.2,5.9c0.2,0.1,0.3,0.2,0.6,0.3C74.8,144.5,75,144.5,75.3,144.5z"/>
	<path class="st4" d="M81.2,145.7c-0.4,0-0.7-0.1-1-0.3c-0.3-0.2-0.5-0.5-0.7-0.8s-0.3-0.7-0.3-1c0-0.6,0.1-1.1,0.2-1.5
		c0.2-0.4,0.4-0.7,0.8-1c0.3-0.3,0.7-0.5,1.1-0.7c0.4-0.2,0.9-0.4,1.4-0.6l0-0.7c0-0.4,0-0.7-0.1-0.9c-0.1-0.2-0.1-0.4-0.3-0.5
		c-0.1-0.1-0.3-0.2-0.6-0.2c-0.2,0-0.4,0.1-0.6,0.2c-0.1,0.1-0.2,0.3-0.3,0.5c-0.1,0.2-0.1,0.4-0.1,0.7l0,0.5l-1.7,0
		c0-1,0.2-1.8,0.6-2.3c0.4-0.5,1.1-0.8,2.1-0.8c0.9,0,1.6,0.2,2,0.7c0.4,0.5,0.6,1.2,0.6,2.2l0.1,4.2c0,0.3,0,0.6,0,0.8
		c0,0.3,0.1,0.5,0.1,0.7c0,0.2,0.1,0.4,0.1,0.6l-1.6,0c0-0.2-0.1-0.4-0.1-0.6c-0.1-0.3-0.1-0.5-0.1-0.7c-0.1,0.4-0.3,0.7-0.6,1
		S81.7,145.7,81.2,145.7z M81.8,144.2c0.2,0,0.3-0.1,0.5-0.2c0.1-0.1,0.3-0.2,0.4-0.3c0.1-0.1,0.2-0.2,0.2-0.3l-0.1-2.6
		c-0.3,0.2-0.5,0.3-0.7,0.5c-0.2,0.2-0.4,0.3-0.6,0.5c-0.2,0.2-0.3,0.4-0.4,0.6c-0.1,0.2-0.1,0.5-0.1,0.7c0,0.4,0.1,0.7,0.2,0.9
		C81.3,144.1,81.5,144.2,81.8,144.2z"/>
	<path class="st4" d="M88.9,145.4c-0.5,0-1-0.1-1.4-0.3c-0.4-0.2-0.7-0.6-0.9-1c-0.2-0.5-0.3-1.1-0.4-1.8l-0.2-5.4
		c0-0.8,0-1.5,0.1-2s0.3-0.9,0.5-1.2c0.3-0.3,0.6-0.6,1-0.7c0.4-0.2,0.8-0.3,1.2-0.4c0.3-0.1,0.7-0.2,1-0.3c0.3-0.1,0.7-0.3,1-0.5
		l0.4,1.4c-0.3,0.2-0.6,0.4-1,0.5c-0.4,0.1-0.7,0.2-1.1,0.3c-0.3,0.1-0.7,0.2-1,0.4c-0.3,0.2-0.5,0.4-0.7,0.7
		c-0.2,0.3-0.2,0.7-0.2,1.3l0,1.5c0.1-0.1,0.3-0.3,0.5-0.4c0.2-0.1,0.5-0.2,0.7-0.3s0.5-0.1,0.7-0.2c0.4,0,0.7,0.1,1.1,0.3
		c0.3,0.2,0.6,0.5,0.8,1c0.2,0.5,0.3,1.1,0.3,2l0.1,1.8c0,1-0.1,1.7-0.3,2.2c-0.2,0.5-0.6,0.9-1,1.1
		C89.9,145.3,89.4,145.4,88.9,145.4z M89,144.2c0.2,0,0.4-0.1,0.6-0.2s0.2-0.3,0.3-0.6c0.1-0.3,0.1-0.6,0.1-1l-0.1-2.8
		c0-0.4,0-0.7-0.1-0.9c-0.1-0.2-0.2-0.4-0.3-0.5c-0.1-0.1-0.3-0.2-0.5-0.2c-0.1,0-0.2,0-0.4,0.1c-0.1,0-0.3,0.1-0.4,0.2
		c-0.1,0.1-0.3,0.2-0.4,0.3l0.1,3.8c0,0.4,0.1,0.8,0.1,1.1c0.1,0.3,0.2,0.5,0.4,0.6C88.5,144.1,88.7,144.2,89,144.2z"/>
	<path class="st4" d="M95.8,145.2c-0.7,0-1.2-0.1-1.6-0.4c-0.4-0.3-0.7-0.7-0.9-1.2c-0.2-0.5-0.3-1.1-0.3-1.8l-0.1-2.7
		c0-0.7,0-1.3,0.2-1.8c0.1-0.5,0.4-0.9,0.8-1.2c0.4-0.3,0.9-0.4,1.6-0.5c0.7,0,1.2,0.1,1.6,0.4c0.4,0.3,0.7,0.7,0.9,1.2
		s0.3,1.1,0.3,1.8l0.1,2.7c0,0.7,0,1.3-0.2,1.8c-0.1,0.5-0.4,0.9-0.8,1.2C97.1,145,96.5,145.2,95.8,145.2z M95.8,143.9
		c0.3,0,0.6-0.1,0.7-0.3c0.1-0.2,0.2-0.5,0.2-0.8c0-0.3,0-0.6,0-1l-0.1-2.9c0-0.4,0-0.7-0.1-1c0-0.3-0.1-0.6-0.3-0.8
		c-0.1-0.2-0.4-0.3-0.7-0.3c-0.3,0-0.6,0.1-0.7,0.3c-0.1,0.2-0.2,0.5-0.2,0.8c0,0.3,0,0.6,0,1l0.1,2.9c0,0.3,0,0.7,0.1,1
		c0,0.3,0.1,0.6,0.3,0.8C95.2,143.9,95.5,144,95.8,143.9z"/>
	<path class="st4" d="M101,144.9l-0.3-8L99,137l0-1.3l5.2-0.2l0,1.3l-1.7,0.1l0.3,8L101,144.9z"/>
	<path class="st4" d="M105.5,144.8l-0.3-9.2l1.7-0.1l0.1,3.8c0,0,0.1,0,0.1,0c0,0,0.1,0,0.1,0c0,0,0.1,0,0.1,0c0.6,0,1.2,0,1.6,0.1
		c0.4,0.1,0.8,0.2,1.1,0.4c0.3,0.2,0.5,0.5,0.6,0.8c0.1,0.3,0.2,0.8,0.2,1.3c0,0.5,0,0.9-0.2,1.3c-0.1,0.4-0.3,0.6-0.6,0.9
		c-0.3,0.2-0.7,0.4-1.1,0.5c-0.5,0.1-1,0.2-1.7,0.2L105.5,144.8z M107.2,143.7L107.2,143.7c0.6,0,1.1-0.1,1.4-0.2
		c0.3-0.1,0.5-0.3,0.6-0.5c0.1-0.3,0.2-0.6,0.2-1.1c0-0.4-0.1-0.7-0.2-1c-0.1-0.2-0.3-0.4-0.6-0.5c-0.3-0.1-0.7-0.1-1.3-0.1
		c0,0,0,0-0.1,0c0,0-0.1,0-0.1,0L107.2,143.7z M112,144.6l-0.3-9.2l1.7-0.1l0.3,9.2L112,144.6z"/>
</g>
</svg>
