<svg xmlns="http://www.w3.org/2000/svg" viewBox="0 0 140 158.46"><defs><style>.cls-1{fill:#f7f7f7;}.cls-2{fill:#69bf12;}.cls-3{fill:#fffcf7;}.cls-4{fill:#fff;}.cls-5{fill:#62b311;}</style></defs><title>2д</title><g id="Слой_2" data-name="Слой 2"><g id="_1_блок" data-name="1 блок"><g id="_2д" data-name="2д"><rect class="cls-1" width="140" height="140" rx="70" ry="70"/><rect class="cls-2" x="43.33" y="117.81" width="53.33" height="40" rx="8" ry="8" transform="translate(-4.77 2.53) rotate(-2)"/><path class="cls-3" d="M56.72,144.63l-.38-10.72s-.05,0-.13.05l-.33.09-.43.11-.47.11a3.72,3.72,0,0,0-.42.1l-.32.07-.14,0,0-1.3a4.79,4.79,0,0,0,2.62-1.5l1.3,0,.45,12.94Z"/><path class="cls-3" d="M65.36,144.47a3.08,3.08,0,0,1-2.36-.75,3.3,3.3,0,0,1-.93-2.35.42.42,0,0,1,0-.14l1.72-.06a2.61,2.61,0,0,0,.37,1.46,1.3,1.3,0,0,0,1.17.43c1,0,1.42-1,1.35-2.83l-.06-2a2.11,2.11,0,0,1-1.87,1A3.22,3.22,0,0,1,63.4,139a2,2,0,0,1-.89-.74,3.79,3.79,0,0,1-.49-1.16,7.24,7.24,0,0,1-.19-1.52,7.33,7.33,0,0,1,.12-1.67,4.06,4.06,0,0,1,.51-1.34,2.58,2.58,0,0,1,1-.94,3.19,3.19,0,0,1,1.46-.38,2.94,2.94,0,0,1,1.45.28,2.5,2.5,0,0,1,1,.87,4.45,4.45,0,0,1,.61,1.32,7.61,7.61,0,0,1,.25,1.66l.15,4.35a9.78,9.78,0,0,1,0,1.46,5.43,5.43,0,0,1-.28,1.27,3.48,3.48,0,0,1-.55,1,2.55,2.55,0,0,1-.88.69A3.15,3.15,0,0,1,65.36,144.47Zm-.24-6.56a1.63,1.63,0,0,0,1.44-.93l-.07-1.93c0-1.62-.57-2.42-1.55-2.38a1.23,1.23,0,0,0-1.15.76,3.12,3.12,0,0,0-.21.77,5.26,5.26,0,0,0,0,.91q0,.42,0,.66c0,.16,0,.35,0,.58a3.6,3.6,0,0,0,.11.54,2.41,2.41,0,0,0,.18.42,1.12,1.12,0,0,0,.27.35,1.35,1.35,0,0,0,.4.19A1.55,1.55,0,0,0,65.12,137.91Z"/><path class="cls-4" d="M73.06,138.73l-.26-7.55,1.87-.06a1.7,1.7,0,0,1,1.44.48,2.4,2.4,0,0,1,.5,1.54,2,2,0,0,1-.43,1.45,1.8,1.8,0,0,1-1.37.56l-.82,0,.12,3.51Zm.9-4.31h.48a1.39,1.39,0,0,0,.94-.28,1.27,1.27,0,0,0,.23-.95c0-.2,0-.35,0-.47a1.81,1.81,0,0,0-.07-.35.66.66,0,0,0-.14-.25.64.64,0,0,0-.22-.14,1,1,0,0,0-.32-.08h-1Z"/><path class="cls-4" d="M77.94,139.7l0-.81a2.12,2.12,0,0,0,.91-.07.42.42,0,0,0,.29-.4,2.63,2.63,0,0,0-.07-.74L77.32,131l1,0,.75,3.19.47,2.38.25-2.39.45-3.25,1,0-1.11,6.77c0,.1,0,.25-.07.43a6.77,6.77,0,0,1-.14.79,1.39,1.39,0,0,1-.28.47.92.92,0,0,1-.61.31A5.75,5.75,0,0,1,77.94,139.7Z"/><path class="cls-4" d="M82.67,138.39l-.26-7.54,3.23-.12,0,.76-2.19.08.09,2.38h.23a4.87,4.87,0,0,1,1.07.07,1.89,1.89,0,0,1,.77.31,1.47,1.47,0,0,1,.48.67,3.16,3.16,0,0,1,.18,1.06,2.19,2.19,0,0,1-.51,1.71,2.62,2.62,0,0,1-1.78.59Zm1-.79H84a3,3,0,0,0,.6-.07,1.08,1.08,0,0,0,.42-.23.88.88,0,0,0,.24-.46,2.7,2.7,0,0,0,.06-.75A1.6,1.6,0,0,0,85,135a1.45,1.45,0,0,0-1.1-.29h-.27Z"/><path class="cls-5" d="M95.57,77.05H94.7V69.39a4,4,0,0,0-4-4H87.63V61.81a2.48,2.48,0,0,0-2.54-2.41h-.46l3-5.28a2.12,2.12,0,0,0-.8-2.88L68.18,40.76a2.12,2.12,0,0,0-2.88.81l-10,17.83H47.66a5.84,5.84,0,0,0-6,5.62V98.08a4,4,0,0,0,4,4H90.69a4,4,0,0,0,4-4V90.42h.87a2.8,2.8,0,0,0,2.8-2.8V79.85A2.8,2.8,0,0,0,95.57,77.05ZM85.09,61a.89.89,0,0,1,.94.81v3.57H81.27L83.73,61Zm1.12-7.67-6.78,12H65.75L76.07,47,86,52.63A.51.51,0,0,1,86.21,53.33Zm-26.46,12L71.51,44.47l3.17,1.78L63.92,65.38Zm7-23a.51.51,0,0,1,.69-.19l2.72,1.53L57.91,65.38H53.74ZM43.23,65a4.24,4.24,0,0,1,4.43-4h6.71L51.9,65.38H43.23ZM93.1,98.08a2.41,2.41,0,0,1-2.41,2.41H45.63a2.41,2.41,0,0,1-2.4-2.41V67H90.69a2.41,2.41,0,0,1,2.41,2.41v7.66H82.33a2.8,2.8,0,0,0-2.8,2.8v7.77a2.8,2.8,0,0,0,2.8,2.8H93.1Zm3.67-10.46a1.2,1.2,0,0,1-1.2,1.2H82.33a1.2,1.2,0,0,1-1.2-1.2V79.85a1.2,1.2,0,0,1,1.2-1.2H95.57a1.2,1.2,0,0,1,1.2,1.2Z"/><path class="cls-5" d="M88.18,81.66H86.92a1.44,1.44,0,0,0-1.44,1.45v1.25a1.43,1.43,0,0,0,1.44,1.44h1.26a1.44,1.44,0,0,0,1.44-1.44V83.11A1.45,1.45,0,0,0,88.18,81.66ZM88,84.2h-.94v-.94H88Z"/></g></g></g></svg>